<?xml version="1.0" encoding="UTF-8" standalone="no"?>
<!--  Source: CBS (Centraal Bureau voor de Statistiek / Kadaster, Emmen, 2008). Integrated by Michiel1972. -->
<!--  Gemeentenaam: Utrecht -->
<!--  Wijknaam: Wijk 08 Zuidwest -->
<!--  Buurtnaam: Dichterswijk -->
<!--  Buurtcode: BU03440865 -->
<!--  Inwoneraantal 2008: 4760 -->
<!--  Oppervlakte totaal (ha): 91-->
<!--  Oppervlakte land (ha): 87 -->
  <svg
   xmlns:svg="http://www.w3.org/2000/svg"
   xmlns="http://www.w3.org/2000/svg"
   xmlns:sodipodi="http://sodipodi.sourceforge.net/DTD/sodipodi-0.dtd"
   version="1.0"
   width="300pt"
   height="300pt"
   viewBox="0 0 500 500"
   id="svg2">
  <defs
     id="defs22" />
  <clipPath id="SVG_CP_1">
    <path d="M505,0L0,0L0,505L505,505L505,0z"/>
  </clipPath>
	<g transform="matrix(23.2938696358586,0,0,23.2938696358586,-5880.23882622191,-4724.88490499013)" id="cbs_gemeenten_2009">
		<path clip-path="url(#SVG_CP_1)" fill="#000000" stroke="#000000" stroke-width="0.11" fill-opacity="0.13" stroke-miterlimit="10" stroke-linejoin="round" d="
			M259.16258,209.56526L259.52258,209.97915L259.53158,209.97915L259.63958,209.97915L260.11658,209.0254L260.59358,208.43155L
			260.59358,208.42255L260.60258,208.39556L260.76458,208.2336L261.84457,209.20535L261.90757,209.25934L262.61857,208.66549L262.73556,208.90843
			L262.78956,208.87244L263.07756,208.68349L263.09556,208.66549L264.04956,207.4778L265.00355,208.18861L265.07555,208.21561L
			265.36355,208.30558L265.59755,207.82871L267.15454,209.0254L267.17254,209.0344L268.34253,209.50228L268.70253,209.50228L268.93653,209.61925
			L269.06253,209.86218L269.06253,210.21309L269.17953,210.81594L270.13352,211.29282L270.12452,211.30182L269.65653,212.48051
			L269.99852,212.9394L270.01652,212.95739L270.49352,213.07436L271.56452,213.20033L271.68152,213.07436L271.79851,213.07436L
			272.04151,213.20033L272.40151,214.02812L272.63551,214.15408L272.75251,215.22481L272.63551,215.22481L271.70852,215.45875L
			271.68152,215.45875L271.44752,215.22481L270.84452,215.10784L270.13352,215.10784L270.07952,215.15283L270.01652,215.22481L
			269.53953,216.0616L269.65653,216.41251L269.86353,216.62845L269.89053,216.65544L269.86353,216.93437L269.77353,217.72617L269.31453,217.96011
			L269.29653,217.96911L269.17953,218.08608L268.70253,218.56295L267.15454,218.20305L267.02854,218.20305L266.80354,218.11307
			L266.43454,217.96911L265.95755,217.72617L265.89455,217.91512L265.59755,218.79689L265.46255,218.86888L265.36355,218.92286
			L265.24655,218.44598L264.78755,217.65419L264.76955,217.6092L264.53555,217.56421L264.16656,217.49223L262.97856,217.24929L
			262.61857,217.24929L262.14157,218.20305L262.03357,218.62594L262.02457,218.67992L262.02457,219.99359L262.01557,220.03858L
			261.90757,221.9011L261.78157,222.01807L261.07057,221.54119L261.02557,221.46921L260.59358,220.83937L260.59358,220.83037L259.99958,219.75065
			L259.16258,218.79689L259.04558,218.08608L258.56859,218.08608L258.20859,217.36626L258.32559,217.24929L258.21759,217.2043L
			256.7776,216.65544L256.8946,215.70169L257.1016,215.18882L257.1196,215.13483L257.13759,215.10784L257.24559,213.87516L257.25459,213.79418
			L256.4176,213.43427L256.3186,213.24532L256.3186,213.23632L256.3006,213.20033L255.9406,212.12061L254.86961,212.24657L254.66261,211.93165
			L254.62661,211.88667L254.86961,211.40979L255.22961,211.04988L255.22961,210.573L254.98661,210.33906L254.86961,209.97915L254.39261,209.25934
			L254.75261,208.30558L255.7066,207.95467L255.7066,207.59477L256.4176,207.11789L256.4536,207.0909L257.13759,206.64101L257.37159,207.35183
			L257.96559,208.43155L257.97459,208.44055L258.44259,209.0254L258.50559,209.04339L258.80259,209.14237L259.16258,209.56526"/>
		<path clip-path="url(#SVG_CP_1)" fill="none" stroke="#000000" stroke-width="0.013" stroke-miterlimit="10" stroke-linejoin="round" d="
			M258.80259,209.14237L259.52258,209.97915L259.53158,209.97915L259.63958,209.97915L260.11658,209.0254L260.55758,208.46754"/>
		<path clip-path="url(#SVG_CP_1)" fill="none" stroke="#000000" stroke-width="0.013" stroke-miterlimit="10" stroke-linejoin="round" d="
			M262.71756,208.87244L262.73556,208.90843L262.78956,208.87244L263.07756,208.68349L263.09556,208.66549L264.04956,207.4778L
			264.85055,208.08064"/>
		<path clip-path="url(#SVG_CP_1)" fill="none" stroke="#000000" stroke-width="0.013" stroke-miterlimit="10" stroke-linejoin="round" d="
			M267.10954,208.98941L267.15454,209.0254L267.17254,209.0344L268.34253,209.50228L268.70253,209.50228L268.93653,209.61925L269.06253,209.86218
			L269.06253,210.21309L269.14353,210.61799"/>
		<path clip-path="url(#SVG_CP_1)" fill="none" stroke="#000000" stroke-width="0.013" stroke-miterlimit="10" stroke-linejoin="round" d="
			M269.92653,212.84042L269.99852,212.9394L270.01652,212.95739L270.49352,213.07436L271.56452,213.20033L271.68152,213.07436L
			271.79851,213.07436L272.04151,213.20033L272.32951,213.86616"/>
		<path clip-path="url(#SVG_CP_1)" fill="none" stroke="#000000" stroke-width="0.013" stroke-miterlimit="10" stroke-linejoin="round" d="
			M271.41152,215.21581L270.84452,215.10784L270.13352,215.10784L270.07952,215.15283L270.01652,215.22481L269.53953,216.0616L
			269.65653,216.41251L269.80053,216.56547"/>
		<path clip-path="url(#SVG_CP_1)" fill="none" stroke="#000000" stroke-width="0.013" stroke-miterlimit="10" stroke-linejoin="round" d="
			M268.29753,218.47298L267.15454,218.20305L267.02854,218.20305L266.80354,218.11307L266.43454,217.96911L265.95755,217.72617
			L265.89455,217.91512L265.79555,218.23004"/>
		<path clip-path="url(#SVG_CP_1)" fill="none" stroke="#000000" stroke-width="0.013" stroke-miterlimit="10" stroke-linejoin="round" d="
			M264.10356,217.47423L262.97856,217.24929L262.61857,217.24929L262.14157,218.20305L262.04257,218.61694"/>
		<path clip-path="url(#SVG_CP_1)" fill="none" stroke="#000000" stroke-width="0.013" stroke-miterlimit="10" stroke-linejoin="round" d="
			M261.92557,221.61317L261.90757,221.9011L261.78157,222.01807L261.07057,221.54119L261.02557,221.46921L260.59358,220.83937L
			260.59358,220.83037L260.18858,220.11056"/>
		<path clip-path="url(#SVG_CP_1)" fill="none" stroke="#000000" stroke-width="0.013" stroke-miterlimit="10" stroke-linejoin="round" d="
			M258.50559,217.96911L258.20859,217.36626L258.32559,217.24929L258.21759,217.2043L256.7776,216.65544L256.8406,216.16057"/>
		<path clip-path="url(#SVG_CP_1)" fill="none" stroke="#000000" stroke-width="0.013" stroke-miterlimit="10" stroke-linejoin="round" d="
			M256.7236,213.56923L256.4176,213.43427L256.3186,213.24532L256.3186,213.23632L256.3006,213.20033L255.9406,212.12061L254.86961,212.24657
			L254.76161,212.08461"/>
		<path clip-path="url(#SVG_CP_1)" fill="none" stroke="#000000" stroke-width="0.013" stroke-miterlimit="10" stroke-linejoin="round" d="
			M254.57261,209.53827L254.39261,209.25934L254.75261,208.30558L255.7066,207.95467L255.7066,207.59477L255.9316,207.44181"/>
		<path clip-path="url(#SVG_CP_1)" fill="none" stroke="#000000" stroke-width="0.013" stroke-miterlimit="10" stroke-linejoin="round" d="
			M257.75859,208.05365L257.96559,208.43155L257.97459,208.44055L258.44259,209.0254L258.50559,209.04339L258.80259,209.14237"/>
       </g>
<g transform="matrix(23.2938696358586,0,0,23.2938696358586,-5880.23882622191,-4724.88490499013)" id="wijk_2008_gen">
		<path clip-path="url(#SVG_CP_1)" fill="none" stroke="#000000" stroke-width="0.03" stroke-miterlimit="10" stroke-linecap="round" stroke-linejoin="round" d="
			M264.26556,214.76593L263.49156,215.02686L263.41056,214.60397L263.16756,212.5435L263.15856,212.48951L262.42957,212.38154L
			262.24957,212.05762L261.89857,211.47277L261.54757,211.13086L260.04458,210.11412L259.51358,210.00615L259.53158,209.97915L
			259.63958,209.97915L260.11658,209.0254L260.59358,208.43155L260.59358,208.42255L260.60258,208.39556L260.76458,208.2336L261.84457,209.20535
			L262.91556,210.23109L263.17656,210.86993L263.71656,211.3738L264.16656,211.80569L264.51755,212.1386L265.25555,212.84042L265.47155,213.01138
			L265.54355,213.10135L265.69655,213.36229L265.52555,213.44327L265.45355,213.47926L264.88655,214.19907L264.77855,214.32504
			L264.26556,214.76593"/>
		<path clip-path="url(#SVG_CP_1)" fill="none" stroke="#000000" stroke-width="0.03" stroke-miterlimit="10" stroke-linecap="round" stroke-linejoin="round" d="
			M262.61857,208.66549L262.73556,208.90843L262.78956,208.87244L263.01456,209.35831L263.41056,209.70922L263.85156,209.74521
			L264.44556,209.86218L264.75155,210.27608L265.19255,210.77095L265.52555,210.45603L265.93955,210.86993L266.20955,211.31081
			L265.83155,211.62573L266.01155,212.20158L266.27255,212.62448L265.80455,212.87641L265.54355,213.10135L265.47155,213.01138
			L265.25555,212.84042L264.51755,212.1386L264.16656,211.80569L263.71656,211.3738L263.17656,210.86993L262.91556,210.23109L261.84457,209.20535
			L261.90757,209.25934L262.61857,208.66549"/>
		<path clip-path="url(#SVG_CP_1)" fill="none" stroke="#000000" stroke-width="0.03" stroke-miterlimit="10" stroke-linecap="round" stroke-linejoin="round" d="
			M265.07555,208.21561L265.36355,208.30558L265.59755,207.82871L267.15454,209.0254L267.17254,209.0344L268.34253,209.50228L268.70253,209.50228
			L268.93653,209.61925L269.06253,209.86218L269.06253,210.21309L268.45953,210.44703L268.04554,210.6L267.21754,210.88792L266.20955,211.31081
			L265.93955,210.86993L265.52555,210.45603L265.19255,210.77095L264.75155,210.27608L264.44556,209.86218L263.85156,209.74521
			L263.41056,209.70922L263.01456,209.35831L262.78956,208.87244L263.07756,208.68349L263.09556,208.66549L264.04956,207.4778L
			265.00355,208.18861L265.07555,208.21561"/>
		<path clip-path="url(#SVG_CP_1)" fill="none" stroke="#000000" stroke-width="0.03" stroke-miterlimit="10" stroke-linecap="round" stroke-linejoin="round" d="
			M270.12452,211.30182L269.65653,212.48051L269.99852,212.9394L269.92653,213.13734L269.89953,213.02037L269.62953,212.48051L
			268.61253,212.76844L268.45953,212.82243L268.21653,212.83142L268.13553,212.83142L267.17254,212.9124L267.20854,212.5435L267.01054,212.57949
			L266.46154,212.70546L266.32654,212.71445L266.27255,212.62448L266.01155,212.20158L265.83155,211.62573L266.20955,211.31081
			L267.21754,210.88792L268.04554,210.6L268.45953,210.44703L269.06253,210.21309L269.17953,210.81594L270.13352,211.29282L270.12452,211.30182
			"/>
		<path clip-path="url(#SVG_CP_1)" fill="none" stroke="#000000" stroke-width="0.03" stroke-miterlimit="10" stroke-linecap="round" stroke-linejoin="round" d="
			M269.89953,213.02037L269.92653,213.13734L269.99852,212.9394L270.01652,212.95739L270.49352,213.07436L271.56452,213.20033L
			271.68152,213.07436L271.79851,213.07436L272.04151,213.20033L272.40151,214.02812L272.63551,214.15408L272.75251,215.22481L
			272.63551,215.22481L271.70852,215.45875L271.68152,215.45875L271.44752,215.22481L270.84452,215.10784L270.13352,215.10784L
			270.07952,215.15283L270.01652,215.22481L269.53953,216.0616L269.65653,216.41251L269.86353,216.62845L269.89053,216.65544L269.86353,216.93437
			L269.77353,217.72617L269.31453,217.96011L268.59453,216.79041L267.97354,215.87264L267.79354,215.72868L267.46054,215.46775
			L266.84854,215.08085L266.99254,214.72094L267.08254,214.72094L267.32554,214.31604L267.46054,214.19007L267.26254,213.38928
			L267.17254,212.9124L268.13553,212.83142L268.21653,212.83142L268.45953,212.82243L268.61253,212.76844L269.62953,212.48051L
			269.89953,213.02037"/>
		<path clip-path="url(#SVG_CP_1)" fill="none" stroke="#000000" stroke-width="0.03" stroke-miterlimit="10" stroke-linecap="round" stroke-linejoin="round" d="
			M267.20854,212.5435L267.17254,212.9124L267.26254,213.38928L267.46054,214.19007L267.32554,214.31604L267.08254,214.72094L266.99254,214.72094
			L266.84854,215.08085L266.63254,214.93688L266.58754,214.95488L266.29054,214.78392L265.52555,213.44327L265.69655,213.36229
			L265.54355,213.10135L265.80455,212.87641L266.27255,212.62448L266.32654,212.71445L266.46154,212.70546L267.01054,212.57949
			L267.20854,212.5435"/>
		<path clip-path="url(#SVG_CP_1)" fill="none" stroke="#000000" stroke-width="0.03" stroke-miterlimit="10" stroke-linecap="round" stroke-linejoin="round" d="
			M268.59453,216.79041L269.31453,217.96011L269.29653,217.96911L269.17953,218.08608L268.70253,218.56295L267.15454,218.20305
			L267.02854,218.20305L266.80354,218.11307L266.43454,217.96911L265.95755,217.72617L265.89455,217.91512L266.02055,217.36626
			L266.08355,217.2133L266.58754,215.81866L266.84854,215.08085L267.46054,215.46775L267.79354,215.72868L267.97354,215.87264L
			268.59453,216.79041"/>
		<path clip-path="url(#SVG_CP_1)" fill="#FFAAAA" fill-opacity="0.5" stroke="#000000" stroke-width="0.03" stroke-miterlimit="10" stroke-linecap="round" stroke-linejoin="round" d="
			M266.29054,214.78392L266.58754,214.95488L266.63254,214.93688L266.84854,215.08085L266.58754,215.81866L266.08355,217.2133L
			266.02055,217.36626L265.89455,217.91512L265.59755,218.79689L265.46255,218.86888L265.36355,218.92286L265.24655,218.44598L
			264.78755,217.65419L264.78755,217.41125L264.63455,217.15032L264.01356,216.0526L263.49156,215.02686L264.26556,214.76593L264.77855,214.32504
			L264.88655,214.19907L265.45355,213.47926L265.52555,213.44327L266.29054,214.78392"/>
		<path clip-path="url(#SVG_CP_1)" fill="none" stroke="#000000" stroke-width="0.03" stroke-miterlimit="10" stroke-linecap="round" stroke-linejoin="round" d="
			M263.16756,212.5435L263.41056,214.60397L263.49156,215.02686L264.01356,216.0526L264.63455,217.15032L264.78755,217.41125L263.85156,217.2133
			L262.96056,216.73642L262.80756,216.41251L263.06856,215.17982L263.01456,215.06285L262.90656,215.08984L262.46557,216.34052
			L262.02457,216.47549L261.20557,216.24155L261.61057,215.05385L261.76357,215.04486L261.85357,214.73893L261.71857,214.71194
			L261.76357,214.55898L261.62857,214.487L261.40357,214.54098L261.40357,214.44201L261.19657,214.40602L260.80957,214.50499L260.78258,213.92914
			L260.80057,213.58723L260.44058,213.57823L260.09858,213.47026L259.74758,212.72345L259.12658,212.29156L259.22558,212.01263
			L259.50458,210.9689L259.75658,210.51902L259.38758,210.22209L259.51358,210.00615L260.04458,210.11412L261.54757,211.13086L
			261.89857,211.47277L262.24957,212.05762L262.42957,212.38154L263.15856,212.48951L263.16756,212.5435"/>
		<path clip-path="url(#SVG_CP_1)" fill="none" stroke="#000000" stroke-width="0.03" stroke-miterlimit="10" stroke-linecap="round" stroke-linejoin="round" d="
			M258.80259,209.14237L259.52258,209.97915L259.53158,209.97915L259.51358,210.00615L259.38758,210.22209L259.75658,210.51902
			L259.50458,210.9689L259.22558,212.01263L259.12658,212.29156L259.74758,212.72345L260.09858,213.47026L260.44058,213.57823L
			260.80057,213.58723L260.78258,213.92914L260.80957,214.50499L261.19657,214.40602L261.40357,214.44201L261.40357,214.54098L
			261.62857,214.487L261.76357,214.55898L261.71857,214.71194L261.85357,214.73893L261.76357,215.04486L261.61057,215.05385L261.20557,216.24155
			L262.02457,216.47549L262.46557,216.34052L262.90656,215.08984L263.01456,215.06285L263.06856,215.17982L262.80756,216.41251
			L262.96056,216.73642L263.85156,217.2133L264.78755,217.41125L264.78755,217.65419L264.76955,217.6092L264.53555,217.56421L264.16656,217.49223
			L262.97856,217.24929L262.61857,217.24929L262.14157,218.20305L262.03357,218.62594L262.02457,218.67992L262.02457,219.99359
			L262.01557,220.03858L261.90757,221.9011L261.78157,222.01807L261.07057,221.54119L261.02557,221.46921L260.59358,220.83937L
			260.59358,220.83037L259.99958,219.75065L259.16258,218.79689L259.04558,218.08608L258.56859,218.08608L258.20859,217.36626L
			258.32559,217.24929L258.21759,217.2043L256.7776,216.65544L256.8946,215.70169L257.1016,215.18882L257.1196,215.13483L257.13759,215.10784
			L257.24559,213.87516L257.25459,213.79418L256.4176,213.43427L256.3186,213.24532L256.3186,213.23632L256.3006,213.20033L255.9406,212.12061
			L254.86961,212.24657L254.66261,211.93165L254.62661,211.88667L254.86961,211.40979L255.22961,211.04988L255.22961,210.573L254.98661,210.33906
			L254.86961,209.97915L254.39261,209.25934L254.75261,208.30558L255.7066,207.95467L255.7066,207.59477L256.4176,207.11789L256.4536,207.0909
			L257.13759,206.64101L257.37159,207.35183L257.96559,208.43155L257.97459,208.44055L258.44259,209.0254L258.50559,209.04339L
			258.80259,209.14237"/>
       </g>
<g transform="matrix(23.2938696358586,0,0,23.2938696358586,-5880.23882622191,-4724.88490499013)" id="brt_2008_gen">
		<path clip-path="url(#SVG_CP_1)" fill="none" stroke="#000000" stroke-width="0.029" stroke-miterlimit="10" stroke-linecap="round" stroke-linejoin="round" d="
			M264.77855,214.32504L264.26556,214.76593L263.49156,215.02686L263.41056,214.60397L263.82456,214.68495L264.00456,214.54098
			L264.58055,213.93814L264.88655,214.19907L264.77855,214.32504"/>
		<path clip-path="url(#SVG_CP_1)" fill="none" stroke="#000000" stroke-width="0.029" stroke-miterlimit="10" stroke-linecap="round" stroke-linejoin="round" d="
			M264.58055,213.93814L264.00456,214.54098L263.68956,214.20807L263.61756,213.55124L263.74356,213.23632L264.49955,213.87516
			L264.58055,213.93814"/>
		<path clip-path="url(#SVG_CP_1)" fill="none" stroke="#000000" stroke-width="0.029" stroke-miterlimit="10" stroke-linecap="round" stroke-linejoin="round" d="
			M264.00456,214.54098L263.82456,214.68495L263.41056,214.60397L263.16756,212.5435L263.39256,212.9214L263.74356,213.23632L263.61756,213.55124
			L263.68956,214.20807L264.00456,214.54098"/>
		<path clip-path="url(#SVG_CP_1)" fill="none" stroke="#000000" stroke-width="0.029" stroke-miterlimit="10" stroke-linecap="round" stroke-linejoin="round" d="
			M265.54355,213.10135L265.69655,213.36229L265.52555,213.44327L265.45355,213.47926L265.12055,213.64122L264.97655,213.15534
			L265.36355,213.20933L265.54355,213.10135"/>
		<path clip-path="url(#SVG_CP_1)" fill="none" stroke="#000000" stroke-width="0.029" stroke-miterlimit="10" stroke-linecap="round" stroke-linejoin="round" d="
			M265.45355,213.47926L264.88655,214.19907L264.58055,213.93814L265.12055,213.64122L265.45355,213.47926"/>
		<path clip-path="url(#SVG_CP_1)" fill="none" stroke="#000000" stroke-width="0.029" stroke-miterlimit="10" stroke-linecap="round" stroke-linejoin="round" d="
			M265.12055,213.64122L264.58055,213.93814L264.49955,213.87516L264.43656,213.03837L264.97655,213.15534L265.12055,213.64122
			"/>
		<path clip-path="url(#SVG_CP_1)" fill="none" stroke="#000000" stroke-width="0.029" stroke-miterlimit="10" stroke-linecap="round" stroke-linejoin="round" d="
			M264.43656,213.03837L264.49955,213.87516L263.74356,213.23632L263.39256,212.9214L263.53656,212.84042L264.43656,213.03837"/>
		<path clip-path="url(#SVG_CP_1)" fill="none" stroke="#000000" stroke-width="0.029" stroke-miterlimit="10" stroke-linecap="round" stroke-linejoin="round" d="
			M264.81455,212.69646L265.25555,212.84042L265.47155,213.01138L265.54355,213.10135L265.36355,213.20933L264.97655,213.15534
			L264.43656,213.03837L263.53656,212.84042L263.39256,212.9214L263.16756,212.5435L263.15856,212.48951L264.81455,212.69646"/>
		<path clip-path="url(#SVG_CP_1)" fill="none" stroke="#000000" stroke-width="0.029" stroke-miterlimit="10" stroke-linecap="round" stroke-linejoin="round" d="
			M264.51755,212.1386L265.25555,212.84042L264.81455,212.69646L263.15856,212.48951L263.10456,211.95865L263.17656,210.86993L
			263.71656,211.3738L264.16656,211.80569L264.51755,212.1386"/>
		<path clip-path="url(#SVG_CP_1)" fill="none" stroke="#000000" stroke-width="0.029" stroke-miterlimit="10" stroke-linecap="round" stroke-linejoin="round" d="
			M263.10456,211.95865L263.15856,212.48951L262.42957,212.38154L262.24957,212.05762L261.89857,211.47277L261.54757,211.13086
			L260.04458,210.11412L259.51358,210.00615L259.53158,209.97915L259.63958,209.97915L260.11658,209.0254L260.59358,208.43155L
			260.59358,208.42255L260.60258,208.39556L260.76458,208.2336L261.84457,209.20535L262.91556,210.23109L263.17656,210.86993L263.10456,211.95865
			"/>
		<path clip-path="url(#SVG_CP_1)" fill="none" stroke="#000000" stroke-width="0.029" stroke-miterlimit="10" stroke-linecap="round" stroke-linejoin="round" d="
			M265.49855,212.41753L265.75955,212.57049L266.01155,212.20158L266.27255,212.62448L265.80455,212.87641L265.54355,213.10135
			L265.47155,213.01138L265.35455,212.59748L265.44455,212.12061L265.64255,212.20158L265.49855,212.41753"/>
		<path clip-path="url(#SVG_CP_1)" fill="none" stroke="#000000" stroke-width="0.029" stroke-miterlimit="10" stroke-linecap="round" stroke-linejoin="round" d="
			M266.01155,212.20158L265.75955,212.57049L265.49855,212.41753L265.64255,212.20158L265.44455,212.12061L265.83155,211.62573
			L266.01155,212.20158"/>
		<path clip-path="url(#SVG_CP_1)" fill="none" stroke="#000000" stroke-width="0.029" stroke-miterlimit="10" stroke-linecap="round" stroke-linejoin="round" d="
			M265.44455,212.12061L265.33655,212.1566L264.96755,211.7427L264.57155,211.3648L264.85955,211.06788L265.19255,210.77095L265.83155,211.62573
			L265.44455,212.12061"/>
		<path clip-path="url(#SVG_CP_1)" fill="none" stroke="#000000" stroke-width="0.029" stroke-miterlimit="10" stroke-linecap="round" stroke-linejoin="round" d="
			M264.96755,211.7427L265.33655,212.1566L265.44455,212.12061L265.35455,212.59748L265.47155,213.01138L265.25555,212.84042L264.51755,212.1386
			L264.96755,211.7427"/>
		<path clip-path="url(#SVG_CP_1)" fill="none" stroke="#000000" stroke-width="0.029" stroke-miterlimit="10" stroke-linecap="round" stroke-linejoin="round" d="
			M264.96755,211.7427L264.51755,212.1386L264.16656,211.80569L264.57155,211.3648L264.96755,211.7427"/>
		<path clip-path="url(#SVG_CP_1)" fill="none" stroke="#000000" stroke-width="0.029" stroke-miterlimit="10" stroke-linecap="round" stroke-linejoin="round" d="
			M265.19255,210.77095L264.85955,211.06788L264.38256,210.89692L264.75155,210.27608L265.19255,210.77095"/>
		<path clip-path="url(#SVG_CP_1)" fill="none" stroke="#000000" stroke-width="0.029" stroke-miterlimit="10" stroke-linecap="round" stroke-linejoin="round" d="
			M264.85955,211.06788L264.57155,211.3648L264.38256,210.89692L264.85955,211.06788"/>
		<path clip-path="url(#SVG_CP_1)" fill="none" stroke="#000000" stroke-width="0.029" stroke-miterlimit="10" stroke-linecap="round" stroke-linejoin="round" d="
			M264.57155,211.3648L264.16656,211.80569L263.71656,211.3738L264.38256,210.89692L264.57155,211.3648"/>
		<path clip-path="url(#SVG_CP_1)" fill="none" stroke="#000000" stroke-width="0.029" stroke-miterlimit="10" stroke-linecap="round" stroke-linejoin="round" d="
			M262.96056,210.1951L263.51856,210.71697L263.88756,210.42904L264.38256,210.89692L263.71656,211.3738L263.17656,210.86993L262.91556,210.23109
			L262.96056,210.1951"/>
		<path clip-path="url(#SVG_CP_1)" fill="none" stroke="#000000" stroke-width="0.029" stroke-miterlimit="10" stroke-linecap="round" stroke-linejoin="round" d="
			M263.88756,210.42904L263.51856,210.71697L262.96056,210.1951L263.29356,209.87118L263.77956,210.33006L263.88756,210.42904"/>
		<path clip-path="url(#SVG_CP_1)" fill="none" stroke="#000000" stroke-width="0.029" stroke-miterlimit="10" stroke-linecap="round" stroke-linejoin="round" d="
			M264.75155,210.27608L264.38256,210.89692L263.88756,210.42904L263.77956,210.33006L264.44556,209.86218L264.75155,210.27608
			"/>
		<path clip-path="url(#SVG_CP_1)" fill="none" stroke="#000000" stroke-width="0.029" stroke-miterlimit="10" stroke-linecap="round" stroke-linejoin="round" d="
			M264.44556,209.86218L263.77956,210.33006L263.29356,209.87118L263.41056,209.70922L263.85156,209.74521L264.44556,209.86218
			"/>
		<path clip-path="url(#SVG_CP_1)" fill="none" stroke="#000000" stroke-width="0.029" stroke-miterlimit="10" stroke-linecap="round" stroke-linejoin="round" d="
			M262.61857,208.66549L262.73556,208.90843L262.78956,208.87244L263.01456,209.35831L263.41056,209.70922L263.29356,209.87118
			L262.96056,210.1951L262.91556,210.23109L261.84457,209.20535L261.90757,209.25934L262.61857,208.66549"/>
		<path clip-path="url(#SVG_CP_1)" fill="none" stroke="#000000" stroke-width="0.029" stroke-miterlimit="10" stroke-linecap="round" stroke-linejoin="round" d="
			M266.20955,211.31081L265.83155,211.62573L265.19255,210.77095L265.52555,210.45603L265.93955,210.86993L266.20955,211.31081
			"/>
		<path clip-path="url(#SVG_CP_1)" fill="none" stroke="#000000" stroke-width="0.029" stroke-miterlimit="10" stroke-linecap="round" stroke-linejoin="round" d="
			M267.21754,210.88792L266.20955,211.31081L265.93955,210.86993L266.47054,210.23109L266.84854,210.43804L267.21754,210.88792
			"/>
		<path clip-path="url(#SVG_CP_1)" fill="none" stroke="#000000" stroke-width="0.029" stroke-miterlimit="10" stroke-linecap="round" stroke-linejoin="round" d="
			M266.47054,210.23109L265.93955,210.86993L265.52555,210.45603L265.83155,210.10512L266.08355,209.70922L266.51554,210.1861L
			266.47054,210.23109"/>
		<path clip-path="url(#SVG_CP_1)" fill="none" stroke="#000000" stroke-width="0.029" stroke-miterlimit="10" stroke-linecap="round" stroke-linejoin="round" d="
			M268.04554,210.6L267.21754,210.88792L266.84854,210.43804L267.36154,209.8082L267.76654,209.96116L268.04554,210.6"/>
		<path clip-path="url(#SVG_CP_1)" fill="none" stroke="#000000" stroke-width="0.029" stroke-miterlimit="10" stroke-linecap="round" stroke-linejoin="round" d="
			M267.36154,209.8082L266.84854,210.43804L266.47054,210.23109L266.51554,210.1861L266.08355,209.70922L266.40754,209.23235L267.36154,209.8082
			"/>
		<path clip-path="url(#SVG_CP_1)" fill="none" stroke="#000000" stroke-width="0.029" stroke-miterlimit="10" stroke-linecap="round" stroke-linejoin="round" d="
			M265.52555,210.45603L265.19255,210.77095L264.75155,210.27608L264.44556,209.86218L263.85156,209.74521L263.88756,209.52027
			L264.46355,208.94442L265.38155,209.65524L265.83155,210.10512L265.52555,210.45603"/>
		<path clip-path="url(#SVG_CP_1)" fill="none" stroke="#000000" stroke-width="0.029" stroke-miterlimit="10" stroke-linecap="round" stroke-linejoin="round" d="
			M266.08355,209.70922L265.83155,210.10512L265.38155,209.65524L265.59755,209.44829L265.51655,209.36731L265.96655,208.89043
			L266.40754,209.23235L266.08355,209.70922"/>
		<path clip-path="url(#SVG_CP_1)" fill="none" stroke="#000000" stroke-width="0.029" stroke-miterlimit="10" stroke-linecap="round" stroke-linejoin="round" d="
			M265.59755,209.44829L265.38155,209.65524L264.46355,208.94442L264.94955,208.46754L264.94055,208.38656L265.44455,208.53053
			L265.96655,208.89043L265.51655,209.36731L265.59755,209.44829"/>
		<path clip-path="url(#SVG_CP_1)" fill="none" stroke="#000000" stroke-width="0.029" stroke-miterlimit="10" stroke-linecap="round" stroke-linejoin="round" d="
			M263.88756,209.52027L263.85156,209.74521L263.41056,209.70922L263.01456,209.35831L262.78956,208.87244L263.07756,208.68349
			L263.09556,208.66549L264.04956,207.4778L265.00355,208.18861L265.07555,208.21561L264.94055,208.38656L264.94955,208.46754L
			264.46355,208.94442L263.88756,209.52027"/>
		<path clip-path="url(#SVG_CP_1)" fill="none" stroke="#000000" stroke-width="0.029" stroke-miterlimit="10" stroke-linecap="round" stroke-linejoin="round" d="
			M265.59755,207.82871L267.15454,209.0254L267.17254,209.0344L268.34253,209.50228L268.70253,209.50228L268.93653,209.61925L269.06253,209.86218
			L269.06253,210.21309L268.45953,210.44703L268.04554,210.6L267.76654,209.96116L267.36154,209.8082L266.40754,209.23235L265.96655,208.89043
			L265.44455,208.53053L264.94055,208.38656L265.07555,208.21561L265.36355,208.30558L265.59755,207.82871"/>
		<path clip-path="url(#SVG_CP_1)" fill="none" stroke="#000000" stroke-width="0.029" stroke-miterlimit="10" stroke-linecap="round" stroke-linejoin="round" d="
			M267.01054,212.57949L266.46154,212.70546L266.22755,212.24657L266.24555,212.11161L266.42554,212.1566L266.54254,212.1566L267.04654,212.32755
			L267.01054,212.57949"/>
		<path clip-path="url(#SVG_CP_1)" fill="none" stroke="#000000" stroke-width="0.029" stroke-miterlimit="10" stroke-linecap="round" stroke-linejoin="round" d="
			M266.46154,212.70546L266.32654,212.71445L266.27255,212.62448L266.01155,212.20158L265.83155,211.62573L266.20955,211.31081
			L266.29054,211.42778L266.24555,212.11161L266.22755,212.24657L266.46154,212.70546"/>
		<path clip-path="url(#SVG_CP_1)" fill="none" stroke="#000000" stroke-width="0.029" stroke-miterlimit="10" stroke-linecap="round" stroke-linejoin="round" d="
			M266.48854,211.57175L266.42554,212.1566L266.24555,212.11161L266.29054,211.42778L266.62354,211.46377L266.48854,211.57175"/>
		<path clip-path="url(#SVG_CP_1)" fill="none" stroke="#000000" stroke-width="0.029" stroke-miterlimit="10" stroke-linecap="round" stroke-linejoin="round" d="
			M267.12754,211.63473L266.54254,212.1566L266.42554,212.1566L266.48854,211.57175L266.62354,211.46377L267.12754,211.63473"/>
		<path clip-path="url(#SVG_CP_1)" fill="none" stroke="#000000" stroke-width="0.029" stroke-miterlimit="10" stroke-linecap="round" stroke-linejoin="round" d="
			M267.20854,212.5435L267.01054,212.57949L267.04654,212.32755L266.54254,212.1566L267.12754,211.63473L267.53254,211.77869L267.39754,212.24657
			L267.20854,212.5435"/>
		<path clip-path="url(#SVG_CP_1)" fill="none" stroke="#000000" stroke-width="0.029" stroke-miterlimit="10" stroke-linecap="round" stroke-linejoin="round" d="
			M268.04554,210.6L267.63154,211.82368L267.53254,211.77869L267.12754,211.63473L266.62354,211.46377L266.29054,211.42778L266.20955,211.31081
			L267.21754,210.88792L268.04554,210.6"/>
		<path clip-path="url(#SVG_CP_1)" fill="none" stroke="#000000" stroke-width="0.029" stroke-miterlimit="10" stroke-linecap="round" stroke-linejoin="round" d="
			M268.45953,210.44703L268.33353,211.92266L267.77554,211.85967L267.63154,211.82368L268.04554,210.6L268.45953,210.44703"/>
		<path clip-path="url(#SVG_CP_1)" fill="none" stroke="#000000" stroke-width="0.029" stroke-miterlimit="10" stroke-linecap="round" stroke-linejoin="round" d="
			M268.61253,212.76844L268.45953,212.82243L268.44153,212.33655L267.73954,211.94965L267.77554,211.85967L268.33353,211.92266
			L268.56753,211.94065L268.61253,212.76844"/>
		<path clip-path="url(#SVG_CP_1)" fill="none" stroke="#000000" stroke-width="0.029" stroke-miterlimit="10" stroke-linecap="round" stroke-linejoin="round" d="
			M267.73954,211.94965L268.44153,212.33655L268.45953,212.82243L268.21653,212.83142L268.13553,212.83142L268.12653,212.45352
			L267.99154,212.30056L267.74854,212.18359L267.39754,212.24657L267.53254,211.77869L267.63154,211.82368L267.77554,211.85967
			L267.73954,211.94965"/>
		<path clip-path="url(#SVG_CP_1)" fill="none" stroke="#000000" stroke-width="0.029" stroke-miterlimit="10" stroke-linecap="round" stroke-linejoin="round" d="
			M268.13553,212.83142L267.17254,212.9124L267.20854,212.5435L267.39754,212.24657L267.74854,212.18359L267.99154,212.30056L268.12653,212.45352
			L268.13553,212.83142"/>
		<path clip-path="url(#SVG_CP_1)" fill="none" stroke="#000000" stroke-width="0.029" stroke-miterlimit="10" stroke-linecap="round" stroke-linejoin="round" d="
			M270.12452,211.30182L269.65653,212.48051L269.99852,212.9394L269.92653,213.13734L269.89953,213.02037L269.62953,212.48051L
			268.61253,212.76844L268.56753,211.94065L268.33353,211.92266L268.45953,210.44703L269.06253,210.21309L269.17953,210.81594L
			270.13352,211.29282L270.12452,211.30182"/>
		<path clip-path="url(#SVG_CP_1)" fill="none" stroke="#000000" stroke-width="0.029" stroke-miterlimit="10" stroke-linecap="round" stroke-linejoin="round" d="
			M267.50554,214.18108L267.46054,214.19007L267.26254,213.38928L267.17254,212.9124L268.13553,212.83142L268.21653,212.83142L
			268.15353,213.00238L267.67654,213.6952L267.50554,214.18108"/>
		<path clip-path="url(#SVG_CP_1)" fill="none" stroke="#000000" stroke-width="0.029" stroke-miterlimit="10" stroke-linecap="round" stroke-linejoin="round" d="
			M267.23554,214.65795L267.16354,214.80192L267.08254,214.72094L267.32554,214.31604L267.46054,214.19007L267.50554,214.18108
			L267.51454,214.33404L267.55054,214.53199L267.23554,214.65795"/>
		<path clip-path="url(#SVG_CP_1)" fill="none" stroke="#000000" stroke-width="0.029" stroke-miterlimit="10" stroke-linecap="round" stroke-linejoin="round" d="
			M267.55054,214.53199L267.63154,215.08984L267.16354,214.80192L267.23554,214.65795L267.55054,214.53199"/>
		<path clip-path="url(#SVG_CP_1)" fill="none" stroke="#000000" stroke-width="0.029" stroke-miterlimit="10" stroke-linecap="round" stroke-linejoin="round" d="
			M267.63154,215.08984L267.79354,215.72868L267.46054,215.46775L266.84854,215.08085L266.99254,214.72094L267.08254,214.72094
			L267.16354,214.80192L267.63154,215.08984"/>
		<path clip-path="url(#SVG_CP_1)" fill="none" stroke="#000000" stroke-width="0.029" stroke-miterlimit="10" stroke-linecap="round" stroke-linejoin="round" d="
			M268.19853,215.68369L267.97354,215.87264L267.79354,215.72868L267.63154,215.08984L268.38753,215.28779L268.19853,215.68369
			"/>
		<path clip-path="url(#SVG_CP_1)" fill="none" stroke="#000000" stroke-width="0.029" stroke-miterlimit="10" stroke-linecap="round" stroke-linejoin="round" d="
			M268.53153,214.97287L268.38753,215.28779L267.63154,215.08984L267.55054,214.53199L267.74854,214.469L268.34253,214.57698L268.53153,214.97287
			"/>
		<path clip-path="url(#SVG_CP_1)" fill="none" stroke="#000000" stroke-width="0.029" stroke-miterlimit="10" stroke-linecap="round" stroke-linejoin="round" d="
			M268.92753,214.24406L268.53153,214.97287L268.34253,214.57698L268.18053,214.35203L268.94553,213.78518L268.92753,214.24406
			"/>
		<path clip-path="url(#SVG_CP_1)" fill="none" stroke="#000000" stroke-width="0.029" stroke-miterlimit="10" stroke-linecap="round" stroke-linejoin="round" d="
			M268.18053,214.35203L268.34253,214.57698L267.74854,214.469L267.55054,214.53199L267.51454,214.33404L267.75754,214.22607L268.18053,214.35203
			"/>
		<path clip-path="url(#SVG_CP_1)" fill="none" stroke="#000000" stroke-width="0.029" stroke-miterlimit="10" stroke-linecap="round" stroke-linejoin="round" d="
			M268.02754,213.6952L268.06354,214.24406L268.18053,214.35203L267.75754,214.22607L267.51454,214.33404L267.50554,214.18108L
			267.67654,213.6952L268.15353,213.00238L268.29753,213.28131L268.02754,213.6952"/>
		<path clip-path="url(#SVG_CP_1)" fill="none" stroke="#000000" stroke-width="0.029" stroke-miterlimit="10" stroke-linecap="round" stroke-linejoin="round" d="
			M268.94553,213.78518L268.18053,214.35203L268.06354,214.24406L268.02754,213.6952L268.29753,213.28131L268.15353,213.00238L
			268.21653,212.83142L268.45953,212.82243L268.61253,212.76844L268.94553,213.78518"/>
		<path clip-path="url(#SVG_CP_1)" fill="none" stroke="#000000" stroke-width="0.029" stroke-miterlimit="10" stroke-linecap="round" stroke-linejoin="round" d="
			M270.49352,213.07436L271.56452,213.20033L271.68152,213.07436L271.79851,213.07436L272.04151,213.20033L272.40151,214.02812
			L272.63551,214.15408L272.75251,215.22481L272.63551,215.22481L271.70852,215.45875L271.68152,215.45875L271.44752,215.22481
			L270.84452,215.10784L270.13352,215.10784L270.07952,215.15283L269.96252,214.8559L269.98052,214.83791L270.11552,213.83017L
			269.92653,213.13734L269.99852,212.9394L270.01652,212.95739L270.49352,213.07436"/>
		<path clip-path="url(#SVG_CP_1)" fill="none" stroke="#000000" stroke-width="0.029" stroke-miterlimit="10" stroke-linecap="round" stroke-linejoin="round" d="
			M269.96252,214.8559L269.94452,214.8829L269.57553,214.75693L269.31453,214.36103L268.92753,214.24406L268.94553,213.78518L268.61253,212.76844
			L269.62953,212.48051L269.89953,213.02037L269.92653,213.13734L270.11552,213.83017L269.98052,214.83791L269.96252,214.8559"/>
		<path clip-path="url(#SVG_CP_1)" fill="none" stroke="#000000" stroke-width="0.029" stroke-miterlimit="10" stroke-linecap="round" stroke-linejoin="round" d="
			M268.86453,215.2788L268.38753,215.28779L268.53153,214.97287L268.92753,214.24406L269.31453,214.36103L269.57553,214.75693L
			268.86453,215.2788"/>
		<path clip-path="url(#SVG_CP_1)" fill="none" stroke="#000000" stroke-width="0.029" stroke-miterlimit="10" stroke-linecap="round" stroke-linejoin="round" d="
			M269.57553,214.75693L269.94452,214.8829L269.96252,214.8559L270.07952,215.15283L270.01652,215.22481L269.53953,216.0616L269.65653,216.41251
			L269.86353,216.62845L269.89053,216.65544L269.86353,216.93437L269.77353,217.72617L269.31453,217.96011L268.59453,216.79041
			L267.97354,215.87264L268.19853,215.68369L268.38753,215.28779L268.86453,215.2788L269.57553,214.75693"/>
		<path clip-path="url(#SVG_CP_1)" fill="none" stroke="#000000" stroke-width="0.029" stroke-miterlimit="10" stroke-linecap="round" stroke-linejoin="round" d="
			M266.22755,213.15534L265.99355,213.21832L265.80455,212.87641L266.27255,212.62448L266.32654,212.71445L266.39854,213.11935
			L266.22755,213.15534"/>
		<path clip-path="url(#SVG_CP_1)" fill="none" stroke="#000000" stroke-width="0.029" stroke-miterlimit="10" stroke-linecap="round" stroke-linejoin="round" d="
			M267.20854,212.5435L267.17254,212.9124L266.94754,212.88541L266.71354,212.9034L266.39854,213.11935L266.32654,212.71445L266.46154,212.70546
			L267.01054,212.57949L267.20854,212.5435"/>
		<path clip-path="url(#SVG_CP_1)" fill="none" stroke="#000000" stroke-width="0.029" stroke-miterlimit="10" stroke-linecap="round" stroke-linejoin="round" d="
			M266.73154,213.61422L266.38054,213.88415L266.24555,213.65021L266.22755,213.15534L266.39854,213.11935L266.41654,213.3263L
			266.64154,213.38028L266.73154,213.61422"/>
		<path clip-path="url(#SVG_CP_1)" fill="none" stroke="#000000" stroke-width="0.029" stroke-miterlimit="10" stroke-linecap="round" stroke-linejoin="round" d="
			M266.75854,213.60522L266.73154,213.61422L266.64154,213.38028L266.41654,213.3263L266.39854,213.11935L266.71354,212.9034L266.94754,212.88541
			L266.91154,213.21832L267.18154,213.42527L266.97454,213.56923L266.75854,213.60522"/>
		<path clip-path="url(#SVG_CP_1)" fill="none" stroke="#000000" stroke-width="0.029" stroke-miterlimit="10" stroke-linecap="round" stroke-linejoin="round" d="
			M267.26254,213.38928L267.18154,213.42527L266.91154,213.21832L266.94754,212.88541L267.17254,212.9124L267.26254,213.38928"/>
		<path clip-path="url(#SVG_CP_1)" fill="none" stroke="#000000" stroke-width="0.029" stroke-miterlimit="10" stroke-linecap="round" stroke-linejoin="round" d="
			M266.99254,214.72094L266.75854,214.74793L266.38054,213.88415L266.73154,213.61422L266.75854,213.60522L266.89354,214.19907
			L266.87554,214.57698L266.99254,214.72094"/>
		<path clip-path="url(#SVG_CP_1)" fill="none" stroke="#000000" stroke-width="0.029" stroke-miterlimit="10" stroke-linecap="round" stroke-linejoin="round" d="
			M267.32554,214.31604L267.08254,214.72094L266.99254,214.72094L266.87554,214.57698L266.89354,214.19907L266.75854,213.60522
			L266.97454,213.56923L267.32554,214.31604"/>
		<path clip-path="url(#SVG_CP_1)" fill="none" stroke="#000000" stroke-width="0.029" stroke-miterlimit="10" stroke-linecap="round" stroke-linejoin="round" d="
			M267.46054,214.19007L267.32554,214.31604L266.97454,213.56923L267.18154,213.42527L267.26254,213.38928L267.46054,214.19007
			"/>
		<path clip-path="url(#SVG_CP_1)" fill="none" stroke="#000000" stroke-width="0.029" stroke-miterlimit="10" stroke-linecap="round" stroke-linejoin="round" d="
			M266.99254,214.72094L266.84854,215.08085L266.63254,214.93688L266.61454,214.8829L266.75854,214.74793L266.99254,214.72094"/>
		<path clip-path="url(#SVG_CP_1)" fill="none" stroke="#000000" stroke-width="0.029" stroke-miterlimit="10" stroke-linecap="round" stroke-linejoin="round" d="
			M266.75854,214.74793L266.61454,214.8829L265.99355,213.79418L266.24555,213.65021L266.38054,213.88415L266.75854,214.74793"/>
		<path clip-path="url(#SVG_CP_1)" fill="none" stroke="#000000" stroke-width="0.029" stroke-miterlimit="10" stroke-linecap="round" stroke-linejoin="round" d="
			M265.80455,212.87641L265.99355,213.21832L266.22755,213.15534L266.24555,213.65021L265.99355,213.79418L266.61454,214.8829L
			266.63254,214.93688L266.58754,214.95488L266.29054,214.78392L265.52555,213.44327L265.69655,213.36229L265.54355,213.10135L
			265.80455,212.87641"/>
		<path clip-path="url(#SVG_CP_1)" fill="none" stroke="#000000" stroke-width="0.029" stroke-miterlimit="10" stroke-linecap="round" stroke-linejoin="round" d="
			M268.59453,216.79041L268.14453,217.08733L267.17254,216.88938L267.45154,216.37651L267.97354,215.87264L268.59453,216.79041
			"/>
		<path clip-path="url(#SVG_CP_1)" fill="none" stroke="#000000" stroke-width="0.029" stroke-miterlimit="10" stroke-linecap="round" stroke-linejoin="round" d="
			M268.59453,216.79041L269.31453,217.96011L269.29653,217.96911L269.17953,218.08608L268.70253,218.56295L267.15454,218.20305
			L267.02854,218.20305L266.80354,218.11307L267.17254,216.88938L268.14453,217.08733L268.59453,216.79041"/>
		<path clip-path="url(#SVG_CP_1)" fill="none" stroke="#000000" stroke-width="0.029" stroke-miterlimit="10" stroke-linecap="round" stroke-linejoin="round" d="
			M267.97354,215.87264L267.45154,216.37651L267.34354,216.24155L267.46054,215.46775L267.79354,215.72868L267.97354,215.87264
			"/>
		<path clip-path="url(#SVG_CP_1)" fill="none" stroke="#000000" stroke-width="0.029" stroke-miterlimit="10" stroke-linecap="round" stroke-linejoin="round" d="
			M267.46054,215.46775L267.34354,216.24155L267.10054,216.16957L267.12754,216.0616L266.58754,215.81866L266.84854,215.08085L
			267.46054,215.46775"/>
		<path clip-path="url(#SVG_CP_1)" fill="none" stroke="#000000" stroke-width="0.029" stroke-miterlimit="10" stroke-linecap="round" stroke-linejoin="round" d="
			M267.10054,216.16957L267.05554,216.32253L266.75854,216.24155L266.38954,217.51022L266.02055,217.36626L266.08355,217.2133L
			266.58754,215.81866L267.12754,216.0616L267.10054,216.16957"/>
		<path clip-path="url(#SVG_CP_1)" fill="none" stroke="#000000" stroke-width="0.029" stroke-miterlimit="10" stroke-linecap="round" stroke-linejoin="round" d="
			M267.34354,216.24155L267.45154,216.37651L267.17254,216.88938L266.80354,218.11307L266.43454,217.96911L265.95755,217.72617
			L265.89455,217.91512L266.02055,217.36626L266.38954,217.51022L266.75854,216.24155L267.05554,216.32253L267.10054,216.16957
			L267.34354,216.24155"/>
		<path clip-path="url(#SVG_CP_1)" fill="#FF0000" fill-opacity="0.9" stroke="#000000" stroke-width="0.029" stroke-miterlimit="10" stroke-linecap="round" stroke-linejoin="round" d="
			M266.19155,215.21581L265.78655,215.30579L265.48955,214.70294L264.88655,214.19907L265.45355,213.47926L265.52555,213.44327
			L266.29054,214.78392L266.58754,214.95488L266.19155,215.21581"/>
		<path clip-path="url(#SVG_CP_1)" fill="none" stroke="#000000" stroke-width="0.029" stroke-miterlimit="10" stroke-linecap="round" stroke-linejoin="round" d="
			M266.58754,215.81866L266.08355,217.2133L265.78655,215.30579L266.19155,215.21581L266.58754,214.95488L266.63254,214.93688L
			266.84854,215.08085L266.58754,215.81866"/>
		<path clip-path="url(#SVG_CP_1)" fill="none" stroke="#000000" stroke-width="0.029" stroke-miterlimit="10" stroke-linecap="round" stroke-linejoin="round" d="
			M265.78655,215.30579L266.08355,217.2133L266.02055,217.36626L265.89455,217.91512L265.59755,218.79689L265.46255,218.86888L
			265.36355,218.92286L265.24655,218.44598L264.78755,217.65419L264.78755,217.41125L264.63455,217.15032L265.31855,216.76342L
			265.65155,216.8264L265.62455,216.66444L265.27355,215.03586L264.77855,214.32504L264.88655,214.19907L265.48955,214.70294L265.78655,215.30579
			"/>
		<path clip-path="url(#SVG_CP_1)" fill="none" stroke="#000000" stroke-width="0.029" stroke-miterlimit="10" stroke-linecap="round" stroke-linejoin="round" d="
			M265.27355,215.03586L265.62455,216.66444L265.29155,216.56547L264.77855,215.6657L265.04855,215.51274L265.02155,215.18882L
			265.27355,215.03586"/>
		<path clip-path="url(#SVG_CP_1)" fill="none" stroke="#000000" stroke-width="0.029" stroke-miterlimit="10" stroke-linecap="round" stroke-linejoin="round" d="
			M265.04855,215.51274L264.77855,215.6657L264.26556,214.76593L264.77855,214.32504L265.27355,215.03586L265.02155,215.18882L
			265.04855,215.51274"/>
		<path clip-path="url(#SVG_CP_1)" fill="none" stroke="#000000" stroke-width="0.029" stroke-miterlimit="10" stroke-linecap="round" stroke-linejoin="round" d="
			M265.62455,216.66444L265.65155,216.8264L265.31855,216.76342L264.63455,217.15032L264.01356,216.0526L264.77855,215.6657L265.29155,216.56547
			L265.62455,216.66444"/>
		<path clip-path="url(#SVG_CP_1)" fill="none" stroke="#000000" stroke-width="0.029" stroke-miterlimit="10" stroke-linecap="round" stroke-linejoin="round" d="
			M264.77855,215.6657L264.01356,216.0526L263.49156,215.02686L264.26556,214.76593L264.77855,215.6657"/>
		<path clip-path="url(#SVG_CP_1)" fill="none" stroke="#000000" stroke-width="0.029" stroke-miterlimit="10" stroke-linecap="round" stroke-linejoin="round" d="
			M264.63455,217.15032L264.78755,217.41125L263.85156,217.2133L262.96056,216.73642L262.80756,216.41251L263.06856,215.17982L
			263.01456,215.06285L263.14056,214.56798L263.41056,214.60397L263.49156,215.02686L264.01356,216.0526L264.63455,217.15032"/>
		<path clip-path="url(#SVG_CP_1)" fill="none" stroke="#000000" stroke-width="0.029" stroke-miterlimit="10" stroke-linecap="round" stroke-linejoin="round" d="
			M261.89857,211.47277L262.24957,212.05762L261.82657,212.01263L261.44857,211.97664L261.27757,211.69771L259.75658,210.51902
			L259.38758,210.22209L259.51358,210.00615L260.04458,210.11412L261.54757,211.13086L261.89857,211.47277"/>
		<path clip-path="url(#SVG_CP_1)" fill="none" stroke="#000000" stroke-width="0.029" stroke-miterlimit="10" stroke-linecap="round" stroke-linejoin="round" d="
			M261.82657,212.01263L261.80857,212.30956L261.47557,212.27357L259.22558,212.01263L259.50458,210.9689L259.75658,210.51902L
			261.27757,211.69771L261.44857,211.97664L261.82657,212.01263"/>
		<path clip-path="url(#SVG_CP_1)" fill="none" stroke="#000000" stroke-width="0.029" stroke-miterlimit="10" stroke-linecap="round" stroke-linejoin="round" d="
			M261.46657,212.67846L262.57357,213.98313L260.78258,213.92914L260.80057,213.58723L260.44058,213.57823L260.09858,213.47026
			L259.74758,212.72345L259.12658,212.29156L259.22558,212.01263L261.47557,212.27357L261.46657,212.67846"/>
		<path clip-path="url(#SVG_CP_1)" fill="none" stroke="#000000" stroke-width="0.029" stroke-miterlimit="10" stroke-linecap="round" stroke-linejoin="round" d="
			M262.24957,212.05762L262.42957,212.38154L263.15856,212.48951L263.16756,212.5435L263.41056,214.60397L263.14056,214.56798L
			263.12256,214.54098L262.57357,213.98313L261.46657,212.67846L261.47557,212.27357L261.80857,212.30956L261.82657,212.01263L
			262.24957,212.05762"/>
		<path clip-path="url(#SVG_CP_1)" fill="none" stroke="#000000" stroke-width="0.029" stroke-miterlimit="10" stroke-linecap="round" stroke-linejoin="round" d="
			M262.57357,213.98313L263.12256,214.54098L261.76357,214.55898L261.62857,214.487L261.40357,214.54098L261.40357,214.44201L261.19657,214.40602
			L260.80957,214.50499L260.78258,213.92914L262.57357,213.98313"/>
		<path clip-path="url(#SVG_CP_1)" fill="none" stroke="#000000" stroke-width="0.029" stroke-miterlimit="10" stroke-linecap="round" stroke-linejoin="round" d="
			M262.46557,216.34052L262.02457,216.47549L261.20557,216.24155L261.61057,215.05385L261.76357,215.04486L261.85357,214.73893
			L261.71857,214.71194L261.76357,214.55898L263.12256,214.54098L263.14056,214.56798L263.01456,215.06285L262.90656,215.08984
			L262.46557,216.34052"/>
		<path clip-path="url(#SVG_CP_1)" fill="none" stroke="#000000" stroke-width="0.029" stroke-miterlimit="10" stroke-linecap="round" stroke-linejoin="round" d="
			M258.80259,209.14237L259.52258,209.97915L259.53158,209.97915L259.51358,210.00615L259.38758,210.22209L259.36958,210.2041L
			258.59559,209.25034L258.33459,209.37631L257.74059,208.6295L257.97459,208.44055L258.44259,209.0254L258.50559,209.04339L258.80259,209.14237
			"/>
		<path clip-path="url(#SVG_CP_1)" fill="none" stroke="#000000" stroke-width="0.029" stroke-miterlimit="10" stroke-linecap="round" stroke-linejoin="round" d="
			M257.74059,208.6295L258.33459,209.37631L258.59559,209.25034L259.36958,210.2041L259.12658,210.83394L257.73159,210.1951L257.44359,209.91617
			L257.18259,209.84419L256.6246,211.67072L256.4536,211.65273L256.5256,212.35455L256.3276,213.22732L256.3186,213.23632L256.3006,213.20033
			L255.9406,212.12061L254.86961,212.24657L254.66261,211.93165L254.62661,211.88667L254.86961,211.40979L255.22961,211.04988L
			255.22961,210.573L254.98661,210.33906L254.86961,209.97915L254.39261,209.25934L254.75261,208.30558L255.7066,207.95467L255.7066,207.59477
			L256.4176,207.11789L256.4536,207.0909L257.13759,206.64101L257.37159,207.35183L257.96559,208.43155L257.97459,208.44055L257.74059,208.6295
			"/>
		<path clip-path="url(#SVG_CP_1)" fill="none" stroke="#000000" stroke-width="0.029" stroke-miterlimit="10" stroke-linecap="round" stroke-linejoin="round" d="
			M259.12658,210.83394L258.70359,211.94965L257.91159,211.85067L256.6246,211.67072L257.18259,209.84419L257.44359,209.91617L
			257.73159,210.1951L259.12658,210.83394"/>
		<path clip-path="url(#SVG_CP_1)" fill="none" stroke="#000000" stroke-width="0.029" stroke-miterlimit="10" stroke-linecap="round" stroke-linejoin="round" d="
			M259.50458,210.9689L259.22558,212.01263L259.12658,212.29156L259.74758,212.72345L260.09858,213.47026L260.44058,213.57823L
			260.16158,213.89315L260.03558,213.89315L259.18058,213.74019L258.60459,213.47026L257.91159,211.85067L258.70359,211.94965L
			259.12658,210.83394L259.36958,210.2041L259.38758,210.22209L259.75658,210.51902L259.50458,210.9689"/>
		<path clip-path="url(#SVG_CP_1)" fill="none" stroke="#000000" stroke-width="0.029" stroke-miterlimit="10" stroke-linecap="round" stroke-linejoin="round" d="
			M258.60459,213.47026L258.45159,214.0731L257.25459,213.79418L256.4176,213.43427L256.3186,213.24532L256.3186,213.23632L256.3276,213.22732
			L256.5256,212.35455L256.4536,211.65273L256.6246,211.67072L257.91159,211.85067L258.60459,213.47026"/>
		<path clip-path="url(#SVG_CP_1)" fill="none" stroke="#000000" stroke-width="0.029" stroke-miterlimit="10" stroke-linecap="round" stroke-linejoin="round" d="
			M259.05458,214.37903L258.90159,215.71968L257.1196,215.13483L257.13759,215.10784L257.24559,213.87516L257.25459,213.79418L
			258.45159,214.0731L258.95559,214.22607L259.05458,214.37903"/>
		<path clip-path="url(#SVG_CP_1)" fill="none" stroke="#000000" stroke-width="0.029" stroke-miterlimit="10" stroke-linecap="round" stroke-linejoin="round" d="
			M259.18058,213.74019L260.03558,213.89315L260.16158,213.89315L260.44058,213.57823L260.80057,213.58723L260.78258,213.92914
			L260.80957,214.50499L260.77358,214.78392L260.54858,214.71194L260.07158,216.00761L258.90159,215.71968L259.05458,214.37903
			L258.95559,214.22607L258.45159,214.0731L258.60459,213.47026L259.18058,213.74019"/>
		<path clip-path="url(#SVG_CP_1)" fill="none" stroke="#000000" stroke-width="0.029" stroke-miterlimit="10" stroke-linecap="round" stroke-linejoin="round" d="
			M261.40357,214.44201L261.40357,214.54098L261.62857,214.487L261.76357,214.55898L261.71857,214.71194L261.85357,214.73893L261.76357,215.04486
			L261.61057,215.05385L261.20557,216.24155L261.21457,216.29554L260.07158,216.00761L260.54858,214.71194L260.77358,214.78392
			L260.80957,214.50499L261.19657,214.40602L261.40357,214.44201"/>
		<path clip-path="url(#SVG_CP_1)" fill="none" stroke="#000000" stroke-width="0.029" stroke-miterlimit="10" stroke-linecap="round" stroke-linejoin="round" d="
			M261.21457,216.29554L260.81857,217.71717L260.19758,217.53722L259.43258,217.51922L258.21759,217.2043L256.7776,216.65544L256.8946,215.70169
			L257.1016,215.18882L257.1196,215.13483L258.90159,215.71968L260.07158,216.00761L261.21457,216.29554"/>
		<path clip-path="url(#SVG_CP_1)" fill="none" stroke="#000000" stroke-width="0.029" stroke-miterlimit="10" stroke-linecap="round" stroke-linejoin="round" d="
			M262.80756,216.41251L262.96056,216.73642L263.85156,217.2133L264.78755,217.41125L264.78755,217.65419L264.76955,217.6092L264.53555,217.56421
			L264.16656,217.49223L262.97856,217.24929L262.61857,217.24929L262.14157,218.20305L262.03357,218.62594L262.02457,218.67992
			L262.02457,219.99359L262.01557,220.03858L261.90757,221.9011L261.78157,222.01807L261.07057,221.54119L261.02557,221.46921L
			260.59358,220.83937L260.59358,220.83037L259.99958,219.75065L259.16258,218.79689L259.04558,218.08608L258.56859,218.08608L
			258.20859,217.36626L258.32559,217.24929L258.21759,217.2043L259.43258,217.51922L260.19758,217.53722L260.81857,217.71717L261.21457,216.29554
			L261.20557,216.24155L262.02457,216.47549L262.46557,216.34052L262.90656,215.08984L263.01456,215.06285L263.06856,215.17982
			L262.80756,216.41251"/>
       </g>
  <rect
     style="opacity:1;color:#000000;fill:#ffaaaa;fill-opacity:1;fill-rule:nonzero;stroke:#000000;stroke-width:0.77678889;stroke-linecap:round;stroke-linejoin:round;marker:none;
            marker-start:none;marker-mid:none;marker-end:none;stroke-miterlimit:10;stroke-dasharray:none;stroke-dashoffset:0;stroke-opacity:1;visibility:visible;display:inline;overflow:visible;enable-background:accumulate"
     id="rect_legend_wijk"
     width="17.2"
     height="17.2"
     x="14.5"
     y="460.0" />
  <rect
     style="opacity:1;color:#000000;fill:#ff0000;fill-opacity:1;fill-rule:nonzero;stroke:#000000;stroke-width:0.77678889;stroke-linecap:round;stroke-linejoin:round;marker:none;
            marker-start:none;marker-mid:none;marker-end:none;stroke-miterlimit:10;stroke-dasharray:none;stroke-dashoffset:0;stroke-opacity:1;visibility:visible;display:inline;overflow:visible;enable-background:accumulate"
     id="rect_legend_buurt"
     width="17.2"
     height="17.2"
     x="14.5"
     y="481.0" />
  <text
     xml:space="preserve"
     style="font-size:14px;font-style:normal;font-weight:normal;text-align:start;line-height:125%;writing-mode:lr-tb;text-anchor:start;fill:#000000;fill-opacity:1;stroke:none;
            stroke-width:1px;stroke-linecap:butt;stroke-linejoin:miter;stroke-opacity:1;font-family:Bitstream Vera Sans"
     x="38.0" 
     y="472.0"
     id="textwijknaam" 
     sodipodi:linespacing="125%"><tspan
       sodipodi:role="line"
       id="tspan4166" 
       x="38.0" 
       y="473.0">Wijk 08 Zuidwest</tspan></text>
  <text
     xml:space="preserve"
     style="font-size:14px;font-style:normal;font-weight:normal;text-align:start;line-height:100%;writing-mode:lr-tb;text-anchor:start;fill:#000000;fill-opacity:1;stroke:none;
            stroke-width:1px;stroke-linecap:butt;stroke-linejoin:miter;stroke-opacity:1;font-family:Bitstream Vera Sans"
     x="38.0"
     y="493.0"
     id="textbuurtnaam"
     sodipodi:linespacing="125%"><tspan
       sodipodi:role="line"
       id="tspan4170"
       x="38.0"
       y="494.0">Buurt 65 Dichterswijk</tspan></text>
</svg>
